<?xml version="1.0" encoding="UTF-8"?>
<svg id="Final_Logos" data-name="Final Logos" xmlns="http://www.w3.org/2000/svg" xmlns:xlink="http://www.w3.org/1999/xlink" viewBox="0 0 407.52 153.84">
  <defs>
    <style>
      .cls-1 {
        fill: #010101;
      }

      .cls-1, .cls-2 {
        stroke-width: 0px;
      }

      .cls-2 {
        fill: #fff;
      }

      .cls-3 {
        filter: url(#luminosity-noclip);
      }

      .cls-4 {
        mask: url(#mask);
      }
    </style>
    <filter id="luminosity-noclip" x="26.35" y="4.89" width="355.91" height="186.42" color-interpolation-filters="sRGB" filterUnits="userSpaceOnUse">
      <feFlood flood-color="#fff" result="bg"/>
      <feBlend in="SourceGraphic" in2="bg"/>
    </filter>
    <mask id="mask" x="26.35" y="4.89" width="355.91" height="186.42" maskUnits="userSpaceOnUse">
      <g class="cls-3">
        <path class="cls-1" d="M26.35,99.32c118.63-1.86,237.28-1.86,355.91,0-.48,30.66-.96,61.33-1.45,91.99-117.67-1.85-235.36-1.85-353.02,0-.48-30.66-.96-61.33-1.45-91.99Z"/>
      </g>
    </mask>
  </defs>
  <path class="cls-2" d="M11.42,104.01s51.79-4.68,87.97-5.73l-.17-3.45s-60.03,3.69-87.79,9.18Z"/>
  <path class="cls-2" d="M397.59,104.01s-51.79-4.68-87.97-5.73l.17-3.45s60.03,3.69,87.79,9.18Z"/>
  <g>
    <path class="cls-2" d="M11.72,148.67c-2.85-11.85-5.72-23.69-8.61-35.53,2-.09,4-.19,6-.28,2.15,9.85,4.62,21.84,5.39,27.91.02,0,.04,0,.05,0,.65-6.31,3.01-20.22,4.19-28.34,1.7-.07,3.4-.15,5.09-.22,1.78,7.38,5.36,21.53,6.41,27.61.04,0,.07,0,.11,0,.49-7.13,2.52-20.68,3.35-28.01,1.87-.07,3.74-.15,5.61-.22-2.03,12.05-4.05,24.1-6.04,36.16-1.87.08-3.74.15-5.61.23-1.77-7.66-5.02-20.25-6.18-26.59-.03,0-.06,0-.09,0-.67,6.65-2.92,19.67-4.09,27.03-1.86.08-3.72.17-5.58.25Z"/>
    <path class="cls-2" d="M48.01,111.26c.44,11.96.88,23.91,1.31,35.87-1.86.07-3.72.14-5.58.21-.45-11.96-.91-23.91-1.36-35.87,1.88-.07,3.75-.14,5.63-.21Z"/>
    <path class="cls-2" d="M54.13,111.04c2.99-.11,5.97-.21,8.96-.31,8.99-.3,12.82,5.47,13.16,16.73.36,12.14-2.85,18.84-12.5,19.16-2.79.09-5.57.19-8.36.29-.42-11.96-.84-23.91-1.26-35.87ZM60.85,142.11c.88-.03,1.76-.06,2.64-.09,5.55-.19,7.27-4.51,6.96-14.32-.27-8.69-2.25-12.46-7.79-12.27-.9.03-1.81.06-2.71.09.3,8.86.6,17.73.9,26.59Z"/>
    <path class="cls-2" d="M98.23,129.22c-3.91.1-7.81.2-11.72.31.11,3.85.21,7.7.32,11.55,4.36-.12,8.72-.23,13.08-.34-.2,1.62-.39,3.23-.59,4.85-5.96.15-11.91.31-17.87.48-.35-11.96-.69-23.92-1.04-35.88,5.97-.17,11.93-.33,17.9-.48.04,1.63.08,3.27.12,4.9-4.11.1-8.22.21-12.33.32.09,3.24.18,6.49.27,9.73,3.91-.11,7.82-.21,11.74-.31.04,1.62.08,3.24.12,4.87Z"/>
    <path class="cls-2" d="M134.06,126.63c.21,12.82-3.04,18.87-11.14,19.02-7.61.15-11.26-5.64-11.55-18.62-.28-12.7,3.75-18.27,11.1-18.41,7.76-.15,11.39,5.65,11.59,18.01ZM117.13,126.85c.19,9.1,1.85,14.16,5.85,14.09,4.18-.08,5.5-4.9,5.33-14.27-.16-9.06-1.75-13.36-5.87-13.28-4.06.08-5.49,4.86-5.31,13.47Z"/>
    <path class="cls-2" d="M138.5,108.9c3.45-.05,6.91-.1,10.36-.15,5.88-.08,10.21,3.43,10.28,10.32.07,6.74-3.75,10.57-10.54,10.66-1.39.02-2.79.04-4.18.06.07,4.97.14,9.94.21,14.91-1.86.03-3.72.05-5.59.08-.18-11.96-.37-23.93-.55-35.89ZM144.37,125.27c1.19-.02,2.37-.03,3.56-.05,3.84-.05,5.62-2.01,5.57-6.15-.04-3.72-2.01-5.78-5.34-5.73-1.32.02-2.64.04-3.95.05.06,3.96.11,7.92.17,11.88Z"/>
    <path class="cls-2" d="M180.32,127.97c-3.91.02-7.82.05-11.72.08.03,3.85.06,7.71.1,11.56,4.36-.04,8.72-.07,13.08-.09-.23,1.61-.45,3.22-.68,4.83-5.96.03-11.91.08-17.87.14-.12-11.96-.23-23.93-.35-35.89,5.97-.06,11.94-.1,17.9-.14,0,1.63.02,3.27.03,4.9-4.11.02-8.22.05-12.33.09.03,3.24.05,6.49.08,9.73,3.91-.03,7.83-.06,11.74-.08,0,1.62.02,3.24.03,4.87Z"/>
    <path class="cls-2" d="M185.27,144.33c-.05-11.96-.11-23.93-.16-35.89,2.17,0,4.35-.02,6.52-.02,8.4,21.53,9.78,25.18,10.23,26.87h.05c-.29-4.49-.32-9.81-.33-15.68,0-3.74,0-7.47,0-11.21,1.7,0,3.39,0,5.09,0,0,11.96-.01,23.93-.02,35.89-2.06,0-4.13,0-6.19,0-8.61-22.83-10-26.45-10.44-28.02-.02,0-.04,0-.05,0,.28,4.44.32,9.93.34,16.37.01,3.89.03,7.78.04,11.67-1.69,0-3.38.01-5.07.02Z"/>
    <path class="cls-2" d="M226.78,113.36c-2.61-.01-5.23-.03-7.84-.03,0-1.63.01-3.27.02-4.9,7.11.02,14.22.07,21.33.13-.01,1.63-.03,3.27-.04,4.9-2.61-.02-5.23-.04-7.84-.06-.07,10.33-.14,20.66-.21,30.99-1.86-.01-3.72-.02-5.59-.03.05-10.33.11-20.66.16-30.99Z"/>
    <path class="cls-2" d="M243.37,108.58c1.88.02,3.76.04,5.63.06-.05,4.84-.1,9.68-.15,14.52,3.24.03,6.48.07,9.73.11.06-4.84.12-9.68.19-14.52,1.88.02,3.76.05,5.63.08-.17,11.96-.34,23.93-.51,35.89-1.86-.03-3.72-.05-5.59-.08.07-5.5.14-11,.21-16.5-3.24-.04-6.48-.08-9.71-.11-.06,5.5-.12,11-.17,16.5-1.86-.02-3.72-.04-5.59-.06.11-11.96.22-23.93.33-35.89Z"/>
    <path class="cls-2" d="M275.67,129.17c-.09,5.24-.18,10.48-.26,15.72-1.85-.03-3.7-.06-5.55-.09.19-11.96.37-23.93.56-35.89,3.51.05,7.02.11,10.53.18,6.41.12,9.89,3.6,9.76,9.81-.11,5.25-2.89,7.45-4.89,8.15,2.95,1.32,4.13,3.9,4.02,9.11,0,.48-.02.95-.03,1.43-.08,3.83.05,5.64.34,7.57-1.81-.04-3.62-.07-5.43-.11-.48-1.65-.5-4.61-.44-7.64,0-.43.02-.85.02-1.28.09-4.9-.96-6.83-5.3-6.91-1.11-.02-2.21-.04-3.32-.06ZM275.74,124.6c1.19.02,2.38.04,3.57.06,4.07.07,5.67-1.84,5.75-5.65.06-3.27-1.45-5.31-5-5.37-1.38-.02-2.75-.05-4.13-.07-.06,3.68-.12,7.35-.19,11.03Z"/>
    <path class="cls-2" d="M316.83,127.55c-.34,12.82-3.85,18.72-11.94,18.53-7.61-.18-11.01-6.12-10.74-19.1.26-12.7,4.53-18.09,11.88-17.92,7.76.19,11.14,6.13,10.81,18.49ZM299.9,127.04c-.2,9.1,1.24,14.23,5.24,14.32,4.18.1,5.7-4.66,5.94-14.03.23-9.06-1.17-13.42-5.3-13.52-4.06-.1-5.69,4.62-5.88,13.22Z"/>
    <path class="cls-2" d="M325.91,115.04c-2.61-.07-5.23-.15-7.84-.22.04-1.63.09-3.27.13-4.9,7.11.19,14.22.4,21.33.62-.05,1.63-.1,3.27-.16,4.9-2.61-.08-5.23-.16-7.84-.24-.31,10.32-.62,20.65-.93,30.97-1.86-.06-3.72-.11-5.58-.16.29-10.33.59-20.65.88-30.98Z"/>
    <path class="cls-2" d="M348.81,115.76c-2.61-.09-5.23-.18-7.84-.26.05-1.63.1-3.27.16-4.9,7.11.23,14.22.47,21.33.74-.06,1.63-.12,3.27-.18,4.9-2.61-.1-5.23-.19-7.84-.28-.36,10.32-.73,20.65-1.09,30.97-1.86-.07-3.72-.13-5.58-.19.35-10.32.7-20.65,1.05-30.97Z"/>
    <path class="cls-2" d="M365.52,111.45c1.88.07,3.75.14,5.63.22-.41,10.36-.81,20.72-1.22,31.08,4.16.16,8.32.33,12.48.51-.27,1.59-.54,3.18-.81,4.76-5.81-.24-11.63-.48-17.44-.7.45-11.96.9-23.91,1.36-35.87Z"/>
    <path class="cls-2" d="M402.93,132.55c-3.91-.18-7.81-.36-11.72-.53-.17,3.85-.34,7.7-.51,11.55,4.36.19,8.71.39,13.07.6-.31,1.6-.62,3.19-.93,4.79-5.95-.28-11.9-.55-17.86-.8.51-11.95,1.02-23.91,1.53-35.86,5.96.26,11.93.52,17.89.8-.08,1.63-.15,3.27-.23,4.9-4.11-.19-8.21-.38-12.32-.56-.14,3.24-.29,6.48-.43,9.72,3.91.17,7.82.35,11.73.53-.08,1.62-.15,3.24-.23,4.86Z"/>
  </g>
  <g class="cls-4">
    <g>
      <path class="cls-2" d="M160.94,75.17c.36,2.8,1.17,5.48,1.75,6.43.5.82,2.22,3.17,5.21,3.77.2.04.4.08.6.11v-15.29c-2.75-.16-5.64-.56-6.46-.61-1.21-.08-1.3,3.98-1.09,5.59Z"/>
      <path class="cls-2" d="M172.95,86.09c1.57.19,4.32.53,5.9.67v-15.87c-1.73-.03-4.46-.26-5.9-.31v15.51Z"/>
      <path class="cls-2" d="M183.3,70.79v16.16c1.67.08,4.25.12,5.73.14v-16.3c-1.66,0-4.23,0-5.73,0Z"/>
      <path class="cls-2" d="M199.02,83.55c.6-2.62.47-10.29-.16-12.31-.21-.68-.31-.62-1.54-.6-1.26.03-2.49.05-3.68.07v16.69c1.6-.07,2.75-.2,3.24-.35.48-.15,1.81-2.08,2.13-3.51Z"/>
      <path class="cls-2" d="M310.73,84.25c-.18-4.7-1.07-9.87-2.58-15.2l-.78-2.78s-.04-.1-.07-.13l-2.76-3.01c-6.93-7.55-11.6-11.75-16.95-15.2-1.9-1.22-4.84-3.41-5.92-4.27-.21-.17-.14-.51.13-.57.65-.15,1.73-.28,2.57-.28,1.15,0,1.25-.03,1.25-.33,0-.45-.37-1.17-.8-1.55-.18-.17-.85-.48-1.48-.72l-1.13-.4.83.1c1.53.18,3.23,1.4,3.52,2.52.1.37.18.38,1.68.38,3.68,0,6.47-1.23,7.5-3.32.43-.85.43-4.02,0-4.8-.55-1.02-2.48-2.05-5.1-2.73-2.37-.63-6.78-.62-8.78.03-.77.23-.9.73-.9,3.17s-.2,3.23-.92,3.42c-.23.05-.45.08-.48.05-.03-.03-1.13-2.02-2.47-4.4-3.63-6.55-5.43-9.32-8.57-13.25-3.48-4.37-8.32-9.18-13.67-13.64l-.75-.63c-.05-.04-.12-.07-.19-.08l-5.06-.33c-9.7-.62-19.55-1.05-30.32-1.33-2.66-.07-8.11-.09-14.1-.08-.04,0-.07,0-.1.02-.03-.01-.07-.02-.1-.02-5.99,0-11.44.02-14.1.08-10.77.28-20.62.72-30.32,1.33l-5.06.33c-.07,0-.14.03-.19.08l-.75.63c-5.35,4.45-10.19,9.27-13.67,13.64-3.13,3.93-4.93,6.7-8.57,13.25-1.33,2.38-2.43,4.37-2.47,4.4-.03.03-.25,0-.48-.05-.72-.18-.92-.95-.92-3.42s-.13-2.93-.9-3.17c-2-.65-6.42-.67-8.78-.03-2.62.68-4.55,1.72-5.1,2.73-.43.78-.43,3.95,0,4.8,1.03,2.08,3.82,3.32,7.5,3.32,1.5,0,1.58-.02,1.68-.38.28-1.12,1.98-2.33,3.52-2.52l.83-.1-1.13.4c-.63.23-1.3.55-1.48.72-.43.38-.8,1.1-.8,1.55,0,.3.1.33,1.25.33.84,0,1.92.12,2.57.28.26.06.34.4.13.57-1.08.86-4.02,3.05-5.92,4.27-5.35,3.45-10.02,7.65-16.95,15.2l-2.76,3.01s-.06.08-.07.13l-.78,2.78c-1.52,5.33-2.4,10.5-2.58,15.2l-.1,2.67.02,1.51s0,.01,0,.02l.1,1.39c.07.77.37,6.68.68,13.15.32,6.47.6,12.09.62,12.49l.05.74s0,.01,0,.02l.11.85s0,.05,0,.08l-.13,1.26c-.18,1.8-.15,6.13.08,8.15.4,3.58.9,6.7,1.2,7.57.78,2.25,2.9,4.7,4.87,5.68l1.06.52s.1.03.15.03l5.54-.1c3.08-.07,9.45-.17,14.12-.22,6.2-.08,8.63-.17,9.02-.32.62-.25,1.07-1.12,1.07-2.03v-.34c0-.18-.14-.33-.32-.33h-1.79c-6.55-.23-6.57-2.22-6.57-2.22l1.33.07c3.03.18,27.46,1.46,31.77,1.31,3.87-.13,5.03-.23,6.83-.58,2.37-.47,5.18-.85,8.42-1.13,1.46-.13,14.78-.2,28.19-.2.04,0,.07,0,.1-.02.03.01.07.02.1.02,13.41,0,26.73.07,28.19.2,3.23.28,6.05.67,8.42,1.13,1.8.35,2.97.45,6.83.58,4.32.15,28.74-1.12,31.77-1.31l1.33-.07s-.02,1.99-6.57,2.21h-1.79c-.18.02-.32.16-.32.34v.34c0,.92.45,1.78,1.07,2.03.38.15,2.82.23,9.02.32,4.67.05,11.04.15,14.12.22l5.54.1c.05,0,.1-.01.15-.03l1.06-.52c1.97-.98,4.08-3.43,4.87-5.68.3-.87.8-3.98,1.2-7.57.23-2.02.27-6.35.08-8.15l-.13-1.26s0-.05,0-.08l.11-.85s0-.01,0-.02l.05-.74c.02-.4.3-6.02.62-12.49.32-6.47.62-12.39.68-13.15l.1-1.39s0-.01,0-.02l.02-1.51-.1-2.67ZM140.41,25.73c6.6-10.17,11.74-16.29,15.3-18.25.98-.55,1.27-.63.63-.2-1.22.83-1.78,1.35-2.08,1.9-.18.33-.28.65-.25.68.05.05,1.53-.05,3.3-.22,14.85-1.43,31.29-2.23,46.9-2.33.03,0,.07-.01.1-.02.03.01.06.02.1.02,15.61.11,32.05.91,46.9,2.33,1.77.17,3.25.27,3.3.22.03-.03-.07-.35-.25-.68-.3-.55-.87-1.07-2.08-1.9-.63-.43-.35-.35.63.2,3.57,1.97,8.7,8.08,15.3,18.25,3,4.63,7.68,12.54,7.52,12.7-.03.03-1.15-.02-2.47-.12-6.02-.42-17.79-1-26.9-1.33-13.35-.49-27.61-.73-41.94-.72-.04,0-.07,0-.1.02-.03-.01-.07-.02-.1-.02-14.34,0-28.59.23-41.94.72-9.12.33-20.89.92-26.9,1.33-1.32.1-2.43.15-2.47.12-.17-.17,4.52-8.07,7.52-12.7ZM267.47,60.57l-2.39,5.98c-.05.12-.16.2-.28.2l-1.61.1c-1.02.07-3.88.33-6.4.57-3.85.38-4.57.42-4.7.22-.25-.38-.32-1.19.06-1.28.72-.17,5.96-.54,8.79-.68,1.57-.07,2.87-.15,2.92-.2.03-.03,1.2-2.7,2.6-5.9,1.4-3.22,3.39-5.38,3.42-5.41.23-.25-.2.9-2.4,6.4ZM204.31,123.78c-.19-.3-.55-.56-1.21-.56-5.99,0-10.9-.06-13.49-.2-9.12-.48-13.85-1.08-15.7-1.97-1.82-.88-3.78-3.12-5.68-6.52-.57-1-1.03-1.88-1.03-1.93,0-.07.2-.07.47-.03.25.05,2.58.23,5.2.42,12.44.87,19.96,1.17,31.35,1.14.04,0,.07,0,.1-.02.03.01.07.02.1.02,11.39.02,18.91-.27,31.35-1.14,2.62-.18,4.95-.37,5.2-.42.27-.03.47-.03.47.03,0,.05-.47.93-1.03,1.93-1.9,3.4-3.87,5.63-5.68,6.52-1.85.88-6.58,1.48-15.7,1.97-2.59.13-7.5.2-13.49.2-.67,0-1.02.26-1.21.56ZM166.15,88.74c-4.86-.95-7.3-5.52-8.14-10.9-.5-3.18-.09-9.34.01-10.87.01-.18.27-.72,1.31-.61,17.57,1.79,39.46,2.14,42.36,2.04.18,0,.32.13.33.3.66,8.57.8,15.76-.52,18.63-.7,1.52-2.85,2.91-4.01,3.03-8.51.91-22.45.11-31.34-1.61ZM211.12,90.35c-1.16-.12-3.31-1.51-4.01-3.03-1.32-2.87-1.18-10.06-.52-18.63.01-.17.16-.31.33-.3,2.9.1,24.79-.25,42.36-2.04,1.04-.11,1.3.43,1.31.61.1,1.53.51,7.69.01,10.87-.84,5.39-3.28,9.96-8.14,10.9-8.89,1.73-22.83,2.52-31.34,1.61ZM156.53,67.63c-.13.2-.85.17-4.7-.22-2.52-.23-5.38-.5-6.4-.57l-1.61-.1c-.13,0-.24-.09-.28-.2l-2.39-5.98c-2.2-5.5-2.63-6.65-2.4-6.4.03.03,2.02,2.2,3.42,5.41,1.4,3.2,2.57,5.87,2.6,5.9.05.05,1.35.13,2.92.2,2.83.13,8.07.51,8.79.68.38.08.31.89.06,1.28ZM104.59,78.28c-2.23-3.28-.21-11.64.1-12.83.03-.11.11-.2.22-.23.68-.21,3.84-.65,18.36.35,4.35.3,16.82,1.03,18.49,1.13.12,0,.22.07.27.18l6.04,10.65c5.8,11.49,6.38,12.75,8.78,19.27.88,2.38,1.97,5.44,2.55,6.75,7.75,17.55,13.28,20.39,13.28,20.39.04.04,11.51,1.77,22.24,2l5.83.13-3.33.13c-1.83.07-6.33.1-10,.05-7.07-.08-9.58-.27-14.05-1.02-2.82-.48-2.57-.32-5.28-3.47-5.7-6.6-8.5-11.82-12.84-23.95-1.77-4.92-2.88-7.73-4.17-10.45l-.87-1.84c-.05-.11-.16-.18-.27-.19l-1.34-.09c-.83-.05-3.32-.17-5.52-.27-17.25-.77-30.06-2.33-35.27-4.35-1.63-.63-2.5-1.27-3.23-2.35ZM117.9,111.08s.23.22.58.48c1.37,1,2,2.1,2.17,3.8.35,3.32-4.31,6.18-8.12,6.11l-1.27-.03,1.15-.13c1.48-.2,2.4-.62,3.42-1.57,2.12-1.98,2.12-5.18,0-7.23-.38-.37-.86-.7-1.09-.79-.02,0-.04-.01-.06-.02-.8-.14-4.47,1.02-5.97,1.91-.43.23-1.15.78-1.6,1.2l-.82.77.4-.72c.92-1.67,3.19-4.71,5.62-5.34,14.69-3.78,41.75,1.97,41.82,2.03.13.11.11.27,0,.44-.22.28-.63.02-5.88-.4-8.67-.68-9.55-.75-15.24-.95-5.77-.2-13.05.07-15.11.44ZM142.01,116.74c-2.15-.15-4.93-.33-6.17-.42l-3.17-.96,2.67.07c1.47.03,6.8.22,11.84.43l9.2.41c.09,0,.08-.01.14.06l1.2,1.23c.25.28.45.55.47.62,0,.05-1.08-.05-2.42-.22-3.22-.38-8.95-.9-13.75-1.22ZM251.57,127.58c-.05.38.02,1.2-8.63,1.64-14.41.75-18.36.83-38.43.83-.08,0-.15.02-.2.04-.05-.02-.12-.04-.2-.04-20.07,0-24.02-.09-38.43-.83-8.65-.43-8.58-1.25-8.63-1.64-.05-.33,0-.33,1.75-.22.98.07,3.72.23,6.05.37,13.04.78,19.27.93,39.37.93.03,0,.06,0,.09-.02.03,0,.06.02.09.02,20.1,0,26.33-.15,39.37-.93,2.33-.13,5.07-.3,6.05-.37,1.75-.12,1.8-.12,1.75.22ZM272.77,116.32c-1.23.08-4.02.27-6.17.42-4.8.32-10.54.83-13.75,1.22-1.33.17-2.42.27-2.42.22.02-.07.22-.33.47-.62l1.2-1.23c.06-.07.05-.05.14-.06l9.2-.41c5.03-.22,10.37-.4,11.84-.43l2.67-.07-3.17.96ZM301.51,114.81c-.45-.42-1.17-.97-1.6-1.2-1.5-.89-5.16-2.05-5.97-1.91-.02,0-.04,0-.06.02-.23.09-.7.42-1.09.79-2.12,2.05-2.12,5.25,0,7.23,1.02.95,1.93,1.37,3.42,1.57l1.15.13-1.27.03c-3.82.07-8.47-2.79-8.12-6.11.17-1.7.8-2.8,2.17-3.8.35-.27.62-.48.58-.48-2.06-.37-9.35-.64-15.11-.44-5.68.2-6.57.27-15.24.95-5.25.42-5.66.68-5.88.4-.12-.17-.14-.33,0-.44.07-.06,27.13-5.81,41.82-2.03,2.43.63,4.7,3.67,5.62,5.34l.4.72-.82-.77ZM304.03,78.28c-.74,1.08-1.6,1.72-3.23,2.35-5.22,2.02-18.02,3.58-35.27,4.35-2.2.1-4.68.22-5.52.27l-1.34.09c-.12,0-.22.08-.27.19l-.87,1.84c-1.28,2.72-2.4,5.53-4.17,10.45-4.33,12.14-7.13,17.35-12.84,23.95-2.72,3.15-2.47,2.98-5.28,3.47-4.47.75-6.98.93-14.05,1.02-3.67.05-8.17.02-10-.05l-3.33-.13,5.83-.13c10.74-.23,22.2-1.96,22.24-2,0,0,5.54-2.84,13.28-20.39.58-1.31,1.67-4.37,2.55-6.75,2.4-6.52,2.98-7.78,8.78-19.27l6.04-10.65c.05-.1.15-.17.27-.18,1.67-.1,14.14-.83,18.49-1.13,14.52-1,17.68-.56,18.36-.35.11.03.19.12.22.23.3,1.18,2.33,9.55.1,12.83Z"/>
      <g>
        <g>
          <path class="cls-2" d="M119.91,80.75c.67.17,1.35.26,2.03.26,1.56,0,3.08-.45,4.42-1.34.49-.32,1.15-.84,1.47-1.17l.03-.03c.12-.13,1.74-2.2,1.74-2.96v-.57s-.52-.23-.52-.23c-.6-.27-1.08.17-1.69.72-1.88,1.7-4.4,2.09-6.74,1.04-2.46-1.1-3.98-3.47-3.97-6.2,0-.57.07-1.28.14-1.57.15-.73.17-1.05-.04-1.36l-.1-.14-.47-.31-.37.09c-.31.07-.56.26-.99,1.03-1.55,2.63-1.63,5.92-.22,8.6,1.11,2.07,3.03,3.59,5.28,4.16Z"/>
          <path class="cls-2" d="M137.19,81.55c.88.78,1.97,1.19,3.09,1.19.28,0,.56-.03.84-.08,1.36-.25,2.5-1.1,3.14-2.33l.22-.43c.11-.22.06-.48-.12-.64-.18-.16-.45-.17-.65-.02l-.68.51c-.85.65-1.86.88-2.85.65-.99-.23-1.84-.92-2.31-1.89-.39-.81-.41-.91-.36-1.82.06-1.29,0-1.34-.14-1.5-.1-.1-.24-.16-.38-.16-.37,0-.5.25-.9,1.13-.81,1.78-.32,4.15,1.1,5.39Z"/>
        </g>
        <g>
          <path class="cls-2" d="M292.77,66.97l-.38-.09-.46.31-.1.14c-.21.31-.19.63-.03,1.4.06.26.14.97.14,1.54,0,2.72-1.52,5.1-3.97,6.19-2.34,1.04-4.86.65-6.74-1.04-.61-.55-1.1-.98-1.69-.72l-.52.24v.56c0,.77,1.62,2.83,1.74,2.96l.03.03c.32.32.99.85,1.47,1.17,1.34.88,2.87,1.34,4.42,1.34.67,0,1.35-.08,2.03-.26,2.25-.57,4.17-2.09,5.28-4.16,1.41-2.67,1.33-5.96-.22-8.59-.43-.77-.68-.96-.99-1.03Z"/>
          <path class="cls-2" d="M271.62,75.03c-.14,0-.28.06-.38.16-.15.15-.2.21-.14,1.5.05.9.03,1-.36,1.81-.47.97-1.32,1.66-2.31,1.89-.99.23-2.01,0-2.86-.65l-.68-.5c-.19-.14-.46-.13-.65.02-.18.16-.24.42-.12.64l.22.43c.64,1.23,1.78,2.08,3.14,2.33.28.05.56.08.84.08,1.12,0,2.22-.41,3.09-1.19,1.43-1.24,1.91-3.61,1.1-5.39-.4-.88-.53-1.13-.9-1.13Z"/>
        </g>
      </g>
      <path class="cls-2" d="M245.92,81.6c.58-.95,1.39-3.63,1.75-6.43.21-1.6.12-5.66-1.09-5.59-.82.05-3.71.45-6.46.61v15.29c.2-.04.4-.07.6-.11,2.98-.6,4.71-2.95,5.21-3.77Z"/>
      <path class="cls-2" d="M229.76,86.76c1.58-.13,4.33-.47,5.9-.67v-15.51c-1.44.05-4.17.27-5.9.31v15.87Z"/>
      <path class="cls-2" d="M219.58,70.79v16.3c1.48-.02,4.06-.07,5.73-.14v-16.16c-1.5,0-4.06,0-5.73,0Z"/>
      <path class="cls-2" d="M209.75,71.24c-.63,2.01-.75,9.68-.16,12.31.32,1.43,1.65,3.36,2.13,3.51.49.15,1.64.28,3.24.35v-16.69c-1.19-.02-2.41-.04-3.68-.07-1.23-.03-1.33-.09-1.54.6Z"/>
    </g>
  </g>
</svg>