<?xml version="1.0" encoding="UTF-8"?>
<svg id="Layer_1" data-name="Layer 1" xmlns="http://www.w3.org/2000/svg" viewBox="0 0 176.45 46.29">
  <defs>
    <style>
      .cls-1 {
        fill: #fff;
      }

      .cls-1, .cls-2 {
        stroke-width: 0px;
      }

      .cls-2 {
        fill: #fdb71c;
      }
    </style>
  </defs>
  <path class="cls-1" d="M12.38,41.71h.66l.68-1.51h3.11l.67,1.51h.69l-2.6-5.75h-.6l-2.6,5.75h0ZM13.97,39.62l1.3-2.91,1.3,2.91h-2.6ZM22.86,41.8c1.43,0,2.38-.86,2.38-2.53v-3.27h-.64v3.32c0,1.25-.67,1.88-1.72,1.88s-1.75-.69-1.75-1.93v-3.28h-.64v3.32c0,1.62.96,2.48,2.37,2.48h0ZM29.74,41.71h.65v-5.11h1.92v-.59h-4.49v.59h1.92v5.11h0ZM37.25,41.81c1.74,0,2.92-1.38,2.92-2.95v-.02c0-1.57-1.17-2.94-2.9-2.94s-2.92,1.38-2.92,2.95v.02c0,1.57,1.17,2.94,2.9,2.94h0ZM37.27,41.21c-1.31,0-2.25-1.06-2.25-2.36v-.02c0-1.3.93-2.34,2.24-2.34s2.25,1.06,2.25,2.36v.02c0,1.3-.93,2.34-2.24,2.34h0ZM43,41.71h.63v-4.62l2.08,3.05h.03l2.08-3.06v4.62h.64v-5.71h-.65l-2.08,3.12-2.08-3.12h-.65v5.71h0ZM54.2,41.81c1.74,0,2.92-1.38,2.92-2.95v-.02c0-1.57-1.17-2.94-2.9-2.94s-2.92,1.38-2.92,2.95v.02c0,1.57,1.17,2.94,2.9,2.94h0ZM54.22,41.21c-1.31,0-2.25-1.06-2.25-2.36v-.02c0-1.3.93-2.34,2.24-2.34s2.25,1.06,2.25,2.36v.02c0,1.3-.93,2.34-2.24,2.34h0ZM61.07,41.71h.65v-5.11h1.92v-.59h-4.49v.59h1.92v5.11h0ZM66.37,41.71h.64v-5.71h-.64v5.71h0ZM72.12,41.75h.57l2.45-5.75h-.69l-2.04,4.92-2.03-4.92h-.72l2.45,5.75h0ZM77.74,41.71h4.17v-.59h-3.52v-2h3.12v-.59h-3.12v-1.95h3.48v-.59h-4.13v5.71h0ZM90.19,41.75h.54l1.57-4.63,1.57,4.63h.55l2.04-5.75h-.68l-1.63,4.76-1.57-4.77h-.53l-1.57,4.77-1.63-4.76h-.7l2.04,5.75h0ZM99.15,41.71h.64v-5.71h-.64v5.71h0ZM102.93,41.71h.63v-4.68l3.69,4.68h.51v-5.71h-.63v4.58l-3.6-4.58h-.6v5.71h0ZM110.84,41.71h1.98c1.8,0,3.03-1.25,3.03-2.85v-.02c0-1.61-1.24-2.84-3.03-2.84h-1.98v5.71h0ZM111.49,41.11v-4.52h1.34c1.44,0,2.37,1,2.37,2.26v.02c0,1.26-.92,2.24-2.37,2.24h-1.34ZM121.34,41.81c1.74,0,2.92-1.38,2.92-2.95v-.02c0-1.57-1.17-2.94-2.9-2.94s-2.92,1.38-2.92,2.95v.02c0,1.57,1.17,2.94,2.9,2.94h0ZM121.36,41.21c-1.31,0-2.25-1.06-2.25-2.36v-.02c0-1.3.93-2.34,2.24-2.34s2.25,1.06,2.25,2.36v.02c0,1.3-.93,2.34-2.24,2.34h0ZM128.4,41.75h.54l1.57-4.63,1.57,4.63h.55l2.04-5.75h-.68l-1.63,4.76-1.57-4.77h-.53l-1.57,4.77-1.63-4.76h-.7l2.04,5.75h0ZM141.21,41.71h.64v-2.49h3.09v-.59h-3.09v-2.04h3.46v-.59h-4.1v5.71h0ZM148.09,41.71h.64v-5.71h-.64v5.71h0ZM151.87,41.71h3.86v-.59h-3.21v-5.11h-.64v5.71h0ZM158.39,41.71h.63v-4.62l2.08,3.05h.03l2.08-3.06v4.62h.64v-5.71h-.65l-2.08,3.12-2.08-3.12h-.65v5.71h0ZM91.48,9.39h17.21v5.01h-11.34v3.28h10.27v4.67h-10.27v3.4h11.5v5.04h-17.36V9.39h0ZM81.79,18.5l-5.48,8.38h-.12l-5.44-8.35v12.26h-5.81V9.39h6.26l5.11,8.28,5.11-8.28h6.26v21.4h-5.9v-12.29h0ZM55.09,9.39h5.93v21.4h-5.93V9.39h0ZM45.83,30.79l-4.31-6.48h-2.63v6.48h-5.93V9.39h10.12c3.27,0,5.53.86,6.97,2.29,1.25,1.25,1.89,2.87,1.89,4.98v.06c0,3.3-1.74,5.47-4.4,6.6l5.1,7.46h-6.81ZM46.01,17.06c0-1.71-1.25-2.57-3.21-2.57h-3.92v5.17h3.95c1.99,0,3.18-.98,3.18-2.54v-.06h0ZM21.27,24.67h-2.97v6.12h-5.93V9.39h9.2c5.38,0,8.87,2.78,8.87,7.49v.06c0,5.08-3.88,7.73-9.17,7.73h0ZM24.55,17.15c0-1.84-1.32-2.78-3.43-2.78h-2.81v5.66h2.85c2.08,0,3.4-1.13,3.4-2.81v-.06h0ZM114.44,9.32h.55v-4.34h1.63v-.5h-3.81v.5h1.63v4.34h0ZM117.62,9.32h.53v-3.91l1.76,2.59h.03l1.76-2.59v3.92h.55v-4.84h-.55l-1.76,2.64-1.76-2.64h-.55v4.84h0Z"/>
  <path class="cls-2" d="M136.53,31.21c-6.2,0-10.78-4.88-10.78-11.08s4.54-11.15,10.87-11.15c3.9,0,6.23,1.38,8.38,3.41l-1.66,1.78c-1.81-1.72-3.84-2.95-6.75-2.95-4.76,0-8.32,3.84-8.32,8.84s3.59,8.9,8.32,8.9c2.95,0,4.88-1.14,6.94-3.1l1.6,1.57c-2.24,2.27-4.7,3.78-8.6,3.78h0ZM151.24,14.72c0-1.97,1.78-3.5,4.57-3.5,2.21,0,4.21.71,6.2,2.33l1.41-1.87c-2.18-1.75-4.42-2.64-7.55-2.64-4.08,0-7.06,2.46-7.06,5.9s2.27,5.16,7.22,6.23c4.51.95,5.59,2.09,5.59,4.11,0,2.18-1.9,3.68-4.79,3.68s-5.13-1.01-7.37-3.04l-1.5,1.78c2.58,2.3,5.37,3.44,8.78,3.44,4.27,0,7.34-2.4,7.34-6.11,0-3.32-2.21-5.07-7-6.11-4.73-1.01-5.83-2.15-5.83-4.21h0Z"/>
</svg>