<?xml version="1.0" encoding="UTF-8"?>
<svg id="Layer_1" data-name="Layer 1" xmlns="http://www.w3.org/2000/svg" viewBox="0 0 176.45 46.29">
  <defs>
    <style>
      .cls-1 {
        fill: #fff;
      }

      .cls-1, .cls-2 {
        stroke-width: 0px;
      }

      .cls-2 {
        fill: #fdb71c;
      }
    </style>
  </defs>
  <path class="cls-1" d="M11.98,41.73h.67l.68-1.52h3.13l.67,1.52h.7l-2.62-5.79h-.61l-2.62,5.79h0ZM13.58,39.63l1.31-2.93,1.31,2.93h-2.62ZM22.53,41.82c1.44,0,2.4-.87,2.4-2.54v-3.29h-.65v3.34c0,1.26-.67,1.9-1.73,1.9s-1.76-.7-1.76-1.94v-3.3h-.65v3.34c0,1.63.97,2.5,2.39,2.5h0ZM29.46,41.73h.66v-5.15h1.93v-.6h-4.52v.6h1.93v5.15h0ZM37.01,41.83c1.75,0,2.94-1.39,2.94-2.97v-.02c0-1.59-1.17-2.96-2.92-2.96s-2.94,1.39-2.94,2.97v.02c0,1.59,1.17,2.96,2.92,2.96h0ZM37.03,41.23c-1.31,0-2.27-1.07-2.27-2.37v-.02c0-1.31.94-2.36,2.25-2.36s2.27,1.07,2.27,2.37v.02c0,1.31-.94,2.36-2.25,2.36h0ZM42.8,41.73h.63v-4.65l2.09,3.07h.03l2.09-3.08v4.66h.65v-5.75h-.66l-2.09,3.14-2.09-3.14h-.66v5.75h0ZM54.08,41.83c1.75,0,2.94-1.39,2.94-2.97v-.02c0-1.59-1.17-2.96-2.92-2.96s-2.94,1.39-2.94,2.97v.02c0,1.59,1.17,2.96,2.92,2.96h0ZM54.09,41.23c-1.31,0-2.27-1.07-2.27-2.37v-.02c0-1.31.94-2.36,2.25-2.36s2.27,1.07,2.27,2.37v.02c0,1.31-.94,2.36-2.25,2.36h0ZM60.99,41.73h.66v-5.15h1.93v-.6h-4.52v.6h1.93v5.15h0ZM66.33,41.73h.65v-5.75h-.65v5.75h0ZM72.12,41.77h.57l2.47-5.79h-.7l-2.05,4.95-2.04-4.95h-.72l2.47,5.79h0ZM77.78,41.73h4.2v-.59h-3.55v-2.01h3.14v-.59h-3.14v-1.96h3.51v-.59h-4.15v5.75h0ZM90.31,41.77h.54l1.58-4.66,1.58,4.66h.55l2.05-5.79h-.68l-1.64,4.79-1.58-4.8h-.53l-1.58,4.8-1.64-4.79h-.71l2.05,5.79h0ZM99.33,41.73h.65v-5.75h-.65v5.75h0ZM103.14,41.73h.63v-4.71l3.71,4.71h.52v-5.75h-.63v4.61l-3.62-4.61h-.61v5.75h0ZM111.1,41.73h1.99c1.81,0,3.05-1.26,3.05-2.87v-.02c0-1.62-1.25-2.86-3.05-2.86h-1.99v5.75h0ZM111.75,41.13v-4.55h1.35c1.45,0,2.38,1,2.38,2.28v.02c0,1.27-.93,2.26-2.38,2.26h-1.35ZM121.67,41.83c1.75,0,2.94-1.39,2.94-2.97v-.02c0-1.59-1.17-2.96-2.92-2.96s-2.94,1.39-2.94,2.97v.02c0,1.59,1.17,2.96,2.92,2.96h0ZM121.69,41.23c-1.31,0-2.27-1.07-2.27-2.37v-.02c0-1.31.94-2.36,2.25-2.36s2.27,1.07,2.27,2.37v.02c0,1.31-.94,2.36-2.25,2.36h0ZM128.78,41.77h.54l1.58-4.66,1.58,4.66h.55l2.05-5.79h-.68l-1.64,4.79-1.58-4.8h-.53l-1.58,4.8-1.64-4.79h-.71l2.05,5.79h0ZM141.68,41.73h.65v-2.5h3.11v-.59h-3.11v-2.05h3.48v-.6h-4.13v5.75h0ZM148.6,41.73h.65v-5.75h-.65v5.75h0ZM152.41,41.73h3.88v-.6h-3.24v-5.15h-.65v5.75h0ZM158.97,41.73h.63v-4.65l2.09,3.07h.03l2.09-3.08v4.66h.65v-5.75h-.66l-2.09,3.14-2.09-3.14h-.66v5.75h0ZM91.07,9.37h17.21v5.01h-11.34v3.28h10.27v4.67h-10.27v3.4h11.5v5.04h-17.36V9.37h0ZM81.38,18.48l-5.47,8.38h-.12l-5.44-8.35v12.26h-5.81V9.37h6.26l5.11,8.28,5.11-8.28h6.26v21.4h-5.9v-12.29h0ZM54.69,9.37h5.93v21.4h-5.93V9.37h0ZM45.43,30.77l-4.31-6.48h-2.63v6.48h-5.93V9.37h10.12c3.27,0,5.53.86,6.97,2.29,1.25,1.25,1.89,2.87,1.89,4.98v.06c0,3.3-1.74,5.47-4.4,6.6l5.1,7.46h-6.81ZM45.61,17.04c0-1.71-1.25-2.57-3.21-2.57h-3.92v5.17h3.95c1.99,0,3.18-.98,3.18-2.54v-.06h0ZM20.87,24.65h-2.97v6.12h-5.93V9.37h9.2c5.38,0,8.87,2.78,8.87,7.49v.06c0,5.08-3.88,7.73-9.17,7.73h0ZM24.14,17.14c0-1.84-1.32-2.78-3.43-2.78h-2.81v5.66h2.85c2.08,0,3.4-1.13,3.4-2.81v-.06h0ZM114.04,9.3h.55v-4.34h1.63v-.5h-3.81v.5h1.63v4.34h0ZM117.21,9.3h.53v-3.91l1.76,2.59h.03l1.76-2.59v3.92h.55v-4.84h-.55l-1.76,2.64-1.76-2.64h-.55v4.84h0Z"/>
  <path class="cls-2" d="M141.43,30.77l-6.81-9.15-6.81,9.15h-2.77l8.18-10.86-7.88-10.43h2.83l6.54,8.7,6.48-8.7h2.8l-7.88,10.4,8.18,10.89h-2.86ZM164.47,30.77l-6.54-8.7c3.34-.61,5.78-2.68,5.78-6.23,0-3.83-3.01-6.36-7.69-6.36h-9.15v21.29h2.4v-8.27h6.08l6.17,8.27h2.95ZM161.28,15.93c0,2.77-2.28,4.41-5.47,4.41h-6.54v-8.64h6.57c3.44,0,5.44,1.58,5.44,4.23h0Z"/>
</svg>