<?xml version="1.0" encoding="utf-8"?>
<!-- Generator: Adobe Illustrator 28.2.0, SVG Export Plug-In . SVG Version: 6.00 Build 0)  -->
<svg version="1.1" id="Layer_1" xmlns="http://www.w3.org/2000/svg" xmlns:xlink="http://www.w3.org/1999/xlink" x="0px" y="0px"
	 viewBox="0 0 166 42.1" style="enable-background:new 0 0 166 42.1;" xml:space="preserve">
<style type="text/css">
	.st0{fill:#FFFFFF;}
</style>
<g id="Sprite">
	<g id="Xpel-Sprite">
		<g id="Page-1-Copy-2">
			<g id="Clip-2">
			</g>
			<path id="Fill-1" class="st0" d="M148.7,32.9c0.5-2.1,5.7-24.3,5.7-24.3H141L133.3,42h29.6l2.1-9.1H148.7z M135.2,17.5l2-8.8
				h-33.9l-2.8,12c0.4-2.2,0.5-4.5-0.4-6.2c-1.1-2.4-3.7-5.3-9.8-5.8c-1.2-0.1-2.9-0.1-12-0.1H66.5L75.6,0H58.3l-9.8,9.8L42.9,0
				H26.2l12.5,19.6L17.5,42h16.3l10.9-11.9L52.1,42h19.8c0,0,2.4-10,2.7-11.2h11.3H86c2.7-0.1,7.7-0.3,11.3-3.5c1.3-1,2.4-3,3.1-5.2
				l-4.6,20h33.9l2.1-9h-20.7c0.3-1.2,0.8-3.5,1-4.3h20.7l1.6-6.9h-20.7c0.3-1.2,0.8-3.6,1-4.4H135.2z M90.8,19.6
				c0,1.2-0.8,2.3-2.8,2.3H63.4l-2,8.5l-6.5-10.8l11.6-11l-2.1,8.8H88C90.2,17.4,90.8,18.4,90.8,19.6z M26,13
				c-3.1,0-5.6,2.5-5.6,5.6s2.5,5.6,5.6,5.6s5.6-2.5,5.6-5.6C31.7,15.6,29.2,13,26,13z M17.4,18.6c0-2.2-1.8-4.1-4.1-4.1
				s-4.1,1.8-4.1,4.1s1.8,4.1,4.1,4.1S17.4,20.9,17.4,18.6z M6.2,18.6c0-1.7-1.4-3.1-3.1-3.1S0,16.9,0,18.6s1.4,3.1,3.1,3.1
				S6.2,20.4,6.2,18.6z"/>
		</g>
	</g>
</g>
<g>
	<path class="st0" d="M160.9,1.6c1.5,0,2.8,1.2,2.8,2.8s-1.3,2.8-2.8,2.8s-2.8-1.2-2.8-2.8S159.4,1.6,160.9,1.6z M160.9,2
		c-1.3,0-2.3,1-2.3,2.4s1,2.4,2.3,2.4s2.3-1,2.3-2.4S162.2,2,160.9,2z M160.4,6h-0.5V2.8h1.2c0.8,0,1.1,0.3,1.1,0.9
		s-0.4,0.8-0.8,0.9l0.9,1.4h-0.5l-0.9-1.4h-0.6V6H160.4z M160.4,4.2h0.6c0.6,0,0.8-0.2,0.8-0.5s-0.2-0.5-0.7-0.5h-0.7L160.4,4.2
		L160.4,4.2z"/>
</g>
</svg>
