<?xml version="1.0" encoding="UTF-8"?>
<svg id="Layer_1" data-name="Layer 1" xmlns="http://www.w3.org/2000/svg" viewBox="0 0 176.45 46.29">
  <defs>
    <style>
      .cls-1 {
        fill: #fff;
      }

      .cls-1, .cls-2 {
        stroke-width: 0px;
      }

      .cls-2 {
        fill: #fdb71c;
      }
    </style>
  </defs>
  <path class="cls-2" d="M132.8,31.2h.73s0-2.48,0-2.48h1.58c1.38,0,2.55-.79,2.55-2.3v-.02c0-1.38-.97-2.22-2.44-2.22h-2.43s.01,7.02.01,7.02h0ZM133.52,28v-3.09s1.64,0,1.64,0c1.05,0,1.75.52,1.75,1.52v.02c0,.92-.7,1.55-1.78,1.55h-1.61ZM139.09,31.19h4.39s0-.74,0-.74h-3.66s-.01-6.28-.01-6.28h-.73s.01,7.02.01,7.02h0ZM147.34,31.29c1.62,0,2.71-1.07,2.7-3.11v-4.02s-.74,0-.74,0v4.08c0,1.53-.75,2.32-1.95,2.32-1.24,0-1.99-.85-1.99-2.36v-4.03s-.74,0-.74,0v4.08c.01,1.98,1.11,3.05,2.71,3.04h0ZM154.11,31.27c1.29,0,2.22-.79,2.21-1.99v-.02c0-1.07-.67-1.64-2.12-1.98-1.43-.33-1.76-.7-1.77-1.36v-.02c0-.63.54-1.13,1.38-1.14.67,0,1.27.23,1.88.76l.43-.61c-.66-.57-1.34-.86-2.28-.86-1.23,0-2.13.82-2.13,1.92v.02c0,1.15.69,1.67,2.18,2.02,1.36.31,1.69.68,1.69,1.33v.02c0,.69-.57,1.19-1.45,1.2-.9,0-1.55-.33-2.23-.99l-.45.58c.78.75,1.63,1.12,2.66,1.12h0Z"/>
  <path class="cls-2" d="M132.83,22.07h1.55l3.8-5.11,3.8,5.11h1.6l-4.57-6.08,4.4-5.81h-1.56l-3.62,4.86-3.65-4.86h-1.58l4.4,5.83-4.57,6.06h0ZM146.05,22.07h1.34v-4.62h3.4l3.45,4.62h1.65l-3.65-4.86c1.87-.34,3.23-1.49,3.23-3.47v-.03c0-.93-.34-1.77-.92-2.34-.75-.75-1.92-1.19-3.38-1.19h-5.11v11.89h0ZM147.39,16.25v-4.82h3.67c1.92,0,3.04.88,3.04,2.34v.03c0,1.53-1.27,2.45-3.06,2.45h-3.65Z"/>
  <path class="cls-1" d="M20.13,41.09h.59l.61-1.36h2.79l.6,1.36h.62l-2.34-5.17h-.54l-2.34,5.17h0ZM21.55,39.21l1.17-2.62,1.17,2.62h-2.34ZM29.55,41.17c1.28,0,2.14-.78,2.14-2.27v-2.94h-.58v2.99c0,1.12-.6,1.69-1.55,1.69s-1.57-.62-1.57-1.73v-2.95h-.58v2.99c0,1.45.86,2.23,2.13,2.23h0ZM35.74,41.09h.59v-4.6h1.72v-.53h-4.03v.53h1.72v4.6h0ZM42.49,41.17c1.56,0,2.63-1.24,2.63-2.65h0c0-1.43-1.05-2.65-2.61-2.65s-2.63,1.24-2.63,2.65h0c0,1.43,1.05,2.65,2.61,2.65h0ZM42.5,40.64c-1.17,0-2.02-.95-2.02-2.12h0c0-1.18.84-2.12,2.01-2.12s2.02.95,2.02,2.12h0c0,1.18-.84,2.12-2.01,2.12h0ZM47.66,41.09h.56v-4.15l1.87,2.74h.03l1.87-2.75v4.16h.58v-5.13h-.59l-1.87,2.8-1.87-2.8h-.59v5.13h0ZM57.73,41.17c1.56,0,2.63-1.24,2.63-2.65h0c0-1.43-1.05-2.65-2.61-2.65s-2.63,1.24-2.63,2.65h0c0,1.43,1.05,2.65,2.61,2.65h0ZM57.74,40.64c-1.17,0-2.02-.95-2.02-2.12h0c0-1.18.84-2.12,2.01-2.12s2.02.95,2.02,2.12h0c0,1.18-.84,2.12-2.01,2.12h0ZM63.9,41.09h.59v-4.6h1.72v-.53h-4.03v.53h1.72v4.6h0ZM68.67,41.09h.58v-5.13h-.58v5.13h0ZM73.84,41.12h.51l2.21-5.17h-.62l-1.83,4.42-1.83-4.42h-.65l2.21,5.17h0ZM78.9,41.09h3.75v-.53h-3.17v-1.8h2.8v-.53h-2.8v-1.75h3.13v-.53h-3.71v5.13h0ZM90.09,41.12h.48l1.42-4.17,1.41,4.17h.49l1.83-5.17h-.61l-1.47,4.28-1.41-4.29h-.48l-1.41,4.29-1.47-4.28h-.63l1.83,5.17h0ZM98.14,41.09h.58v-5.13h-.58v5.13h0ZM101.54,41.09h.56v-4.21l3.32,4.21h.46v-5.13h-.56v4.11l-3.24-4.11h-.54v5.13h0ZM108.66,41.09h1.78c1.61,0,2.73-1.12,2.73-2.57h0c0-1.46-1.11-2.57-2.73-2.57h-1.78v5.13h0ZM109.24,40.55v-4.06h1.2c1.3,0,2.13.9,2.13,2.03h0c0,1.15-.83,2.03-2.13,2.03h-1.2ZM118.1,41.17c1.56,0,2.63-1.24,2.63-2.65h0c0-1.43-1.05-2.65-2.61-2.65s-2.63,1.24-2.63,2.65h0c0,1.43,1.05,2.65,2.61,2.65h0ZM118.11,40.64c-1.17,0-2.02-.95-2.02-2.12h0c0-1.18.84-2.12,2.01-2.12s2.02.95,2.02,2.12h0c0,1.18-.84,2.12-2.01,2.12h0ZM124.44,41.12h.48l1.42-4.17,1.41,4.17h.49l1.83-5.17h-.61l-1.47,4.28-1.41-4.29h-.48l-1.41,4.29-1.47-4.28h-.63l1.83,5.17h0ZM135.96,41.09h.58v-2.24h2.78v-.53h-2.78v-1.83h3.11v-.53h-3.69v5.13h0ZM142.15,41.09h.58v-5.13h-.58v5.13h0ZM145.55,41.09h3.47v-.53h-2.89v-4.6h-.58v5.13h0ZM151.41,41.09h.56v-4.15l1.87,2.74h.03l1.87-2.75v4.16h.58v-5.13h-.59l-1.87,2.8-1.87-2.8h-.59v5.13h0ZM121.97,5.62h-1.63v-.5h3.81v.5h-1.63v4.34h-.55v-4.34h0ZM125.14,5.11h.55l1.76,2.64,1.76-2.64h.55v4.84h-.55v-3.92l-1.76,2.59h-.03l-1.76-2.59v3.91h-.53v-4.84h0ZM20.13,9.89h9.2c5.38,0,8.86,2.78,8.86,7.49v.06c0,5.08-3.88,7.73-9.17,7.73h-2.97v6.11h-5.93V9.89h0ZM28.9,20.53c2.08,0,3.4-1.13,3.4-2.81v-.06c0-1.84-1.32-2.78-3.43-2.78h-2.81v5.66h2.85ZM40.7,9.89h10.12c3.27,0,5.53.86,6.97,2.29,1.25,1.25,1.89,2.87,1.89,4.98v.06c0,3.3-1.74,5.47-4.4,6.6l5.1,7.46h-6.81l-4.31-6.48h-2.63v6.48h-5.93V9.89h0ZM50.57,20.16c1.99,0,3.18-.98,3.18-2.54v-.06c0-1.71-1.25-2.57-3.21-2.57h-3.92v5.17h3.95ZM62.84,9.89h5.93v21.4h-5.93V9.89h0ZM72.68,9.89h6.26l5.11,8.28,5.11-8.28h6.26v21.4h-5.9v-12.29l-5.47,8.38h-.12l-5.44-8.34v12.26h-5.81V9.89h0ZM99.22,9.89h17.21v5.01h-11.34v3.28h10.27v4.67h-10.27v3.4h11.5v5.04h-17.36V9.89h0Z"/>
</svg>